 <svg xmlns="http://www.w3.org/2000/svg" xmlns:xlink="http://www.w3.org/1999/xlink" version="1.1" x="0px" y="0px" viewBox="0 0 100 125" enable-background="new 0 0 100 100" xml:space="preserve" fill="white">
 <path d="M69.1,75.6c-6.2-5.5-10.9-15.9-10.9-24.1l0-1.1h9.4v-6.5L60,41.9c1.1-2.4,1.7-5.1,1.7-8c0-3.7-1-7.3-2.9-10.1  c-2.3-3.5-3.7-7.1-4.1-10.7l-0.3-2.7h-8.9l-0.3,2.7c-0.4,3.6-1.8,7.2-4.1,10.7c-1.9,2.8-2.9,6.4-2.9,10.1c0,2.9,0.6,5.6,1.7,8  l-7.6,1.9v6.5h9.4l0,1.2c0,8.2-4.7,18.5-11,24.1L30,76.3V95H70V77.4l0-1.1L69.1,75.6z"/>
 </svg>