<svg xmlns="http://www.w3.org/2000/svg" xmlns:xlink="http://www.w3.org/1999/xlink" version="1.1" x="0px" y="0px" viewBox="0 0 100 125" enable-background="new 0 0 100 100" xml:space="preserve" fill="white"><path d="M72.4,27.2l-12.5-2.3v-2.5l-9.4-1.2V5L39.6,21.4l-0.5,0.2c-5.4,1.9-9.8,6-12,11.3c-2.2,5.3-2.1,11.3,0.4,16.4l9,17.5  l-5.9,7.4v5.7l-2.3,2.3V95h39.9V82.3l-2.3-2.3v-5.7L60,67l3.2-6.8l0-0.1c1-2.5,0.7-5.4-0.9-7.6l-7.3-10.8c1.9-0.8,4.2-0.9,6.2-0.2  l6.4,2.1l5.7-5.7l-0.9-1.8l1.9-1L72.4,27.2z"/></svg>