<svg xmlns="http://www.w3.org/2000/svg" xmlns:xlink="http://www.w3.org/1999/xlink" version="1.1" x="0px" y="0px" viewBox="0 0 100 125" enable-background="new 0 0 100 100" xml:space="preserve" fill="white"><path d="M69.1,75.6c-6.2-5.5-10.9-15.9-10.9-24.1l0-1.1h9.4v-6.5l-9.4-2.4c0.4-3.9,1.6-7.7,3.3-11.2l1.7-3.4h-8  c1.1-1.2,1.8-2.9,1.8-4.7c0-3.9-3.2-7-7-7s-7,3.2-7,7c0,1.8,0.7,3.5,1.8,4.7h-8l1.7,3.4c1.8,3.5,2.9,7.3,3.3,11.2l-9.4,2.4v6.5h9.4  l0,1.2c0,8.2-4.7,18.5-11,24.1L30,76.3V95H70V77.4l0-1.1L69.1,75.6z"/></svg>